name Run_50002_IK.mot
datacolumns 164
datarows 4
range 0.54 0.57
endheader

time	         pelvis_tilt	         pelvis_list	     pelvis_rotation	           pelvis_tx	           pelvis_ty	           pelvis_tz	       hip_flexion_r	     hip_adduction_r	      hip_rotation_r	        knee_angle_r	       ankle_angle_r	       hip_flexion_l	     hip_adduction_l	      hip_rotation_l	        knee_angle_l	       ankle_angle_l	    lumbar_extension	      lumbar_bending	     lumbar_rotation	          arm_flex_r	           arm_add_r	           arm_rot_r	        elbow_flex_r	           pro_sup_r	          arm_flex_l	           arm_add_l	           arm_rot_l	        elbow_flex_l	           pro_sup_l	    subtalar_angle_r	         mtp_angle_r	    subtalar_angle_l	         mtp_angle_l	        wrist_flex_r	         wrist_dev_r	        wrist_flex_l	         wrist_dev_l	             LASI_tx	             LASI_ty	             LASI_tz	             RASI_tx	             RASI_ty	             RASI_tz	             LPSI_tx	             LPSI_ty	             LPSI_tz	             RPSI_tx	             RPSI_ty	             RPSI_tz	             RTH1_tx	             RTH1_ty	             RTH1_tz	             RTH2_tx	             RTH2_ty	             RTH2_tz	             RTH3_tx	             RTH3_ty	             RTH3_tz	             LTH1_tx	             LTH1_ty	             LTH1_tz	             LTH2_tx	             LTH2_ty	             LTH2_tz	             LTH3_tx	             LTH3_ty	             LTH3_tz	             RTB1_tx	             RTB1_ty	             RTB1_tz	             RTB2_tx	             RTB2_ty	             RTB2_tz	             RTB3_tx	             RTB3_ty	             RTB3_tz	             LTB1_tx	             LTB1_ty	             LTB1_tz	             LTB2_tx	             LTB2_ty	             LTB2_tz	             LTB3_tx	             LTB3_ty	             LTB3_tz	             RCAL_tx	             RCAL_ty	             RCAL_tz	             RTOE_tx	             RTOE_ty	             RTOE_tz	             RMT5_tx	             RMT5_ty	             RMT5_tz	             LCAL_tx	             LCAL_ty	             LCAL_tz	             LTOE_tx	             LTOE_ty	             LTOE_tz	             LMT5_tx	             LMT5_ty	             LMT5_tz	             LACR_tx	             LACR_ty	             LACR_tz	             RACR_tx	             RACR_ty	             RACR_tz	             CLAV_tx	             CLAV_ty	             CLAV_tz	               C7_tx	               C7_ty	               C7_tz	             RUA1_tx	             RUA1_ty	             RUA1_tz	             RUA2_tx	             RUA2_ty	             RUA2_tz	             RUA3_tx	             RUA3_ty	             RUA3_tz	             RLEL_tx	             RLEL_ty	             RLEL_tz	             RMEL_tx	             RMEL_ty	             RMEL_tz	             LUA1_tx	             LUA1_ty	             LUA1_tz	             LUA2_tx	             LUA2_ty	             LUA2_tz	             LUA3_tx	             LUA3_ty	             LUA3_tz	             LLEL_tx	             LLEL_ty	             LLEL_tz	             LMEL_tx	             LMEL_ty	             LMEL_tz	      RFAsuperior_tx	      RFAsuperior_ty	      RFAsuperior_tz	        RFAradius_tx	        RFAradius_ty	        RFAradius_tz	          RFAulna_tx	          RFAulna_ty	          RFAulna_tz	      LFAsuperior_tx	      LFAsuperior_ty	      LFAsuperior_tz	        LFAradius_tx	        LFAradius_ty	        LFAradius_tz	          LFAulna_tx	          LFAulna_ty	          LFAulna_tz	
0.54	        -11.40262262	          0.64289949	         -0.63998494	          1.02096783	          1.03986420	         -0.34066830	         39.87758268	          2.32760384	          0.21740189	        -14.60723270	        -11.78700416	         -4.66732480	          3.71977500	          0.78191111	        -60.56479809	        -11.04758616	          4.73730260	          2.12258375	         -7.60285946	        -58.37149103	        -20.09667182	        -25.23116242	        111.23949619	        102.63816972	        -31.46908852	        -13.70085014	         -3.94589020	        138.58157653	        104.00899659	          0.00000000	          0.00000000	          0.00000000	          0.00000000	          0.00000000	          0.00000000	          0.00000000	          0.00000000	          1.03898109	          1.07165174	         -0.46588039	          1.02968742	          1.08282567	         -0.22273902	          0.88095827	          1.13795691	         -0.40434167	          0.87242421	          1.13074598	         -0.28991462	          0.97795040	          0.96402205	         -0.16580479	          0.98750696	          0.80905035	         -0.19133571	          1.09201067	          0.68797867	         -0.19718641	          0.96346468	          0.94254598	         -0.51951896	          0.84329915	          0.82190365	         -0.47926874	          0.84758098	          0.67700313	         -0.47163572	          1.23607752	          0.47716484	         -0.27028760	          1.17134892	          0.41054026	         -0.20435598	          1.25908336	          0.29073290	         -0.28781099	          0.72958469	          0.48252678	         -0.40721879	          0.60069873	          0.53323862	         -0.45974249	          0.51312154	          0.44314405	         -0.41175677	          1.17430450	          0.14437475	         -0.28705544	          1.41128609	          0.15254463	         -0.33521759	          1.37830934	          0.11252815	         -0.23872242	          0.36787678	          0.53219767	         -0.39229843	          0.36334002	          0.29464385	         -0.38320093	          0.31998778	          0.33880604	         -0.47690844	          0.99568710	          1.57683371	         -0.48141288	          0.98144562	          1.55251472	         -0.16309977	          1.04536151	          1.51853714	         -0.28625491	          0.93131029	          1.58927396	         -0.32771685	          0.84089093	          1.51464032	         -0.13336393	          0.85070792	          1.45402362	         -0.07988340	          0.74671402	          1.43181997	         -0.06148616	          0.68543233	          1.39217388	         -0.04302447	          0.69678599	          1.35073089	         -0.12284261	          0.90845693	          1.48209998	         -0.55259505	          0.94404747	          1.40841591	         -0.57675234	          0.87574430	          1.34595057	         -0.61705833	          0.86472896	          1.27798194	         -0.63844039	          0.83173539	          1.25426794	         -0.55366961	          0.74890593	          1.30812278	         -0.01390361	          0.89523331	          1.21033814	         -0.05787996	          0.84847171	          1.17409133	         -0.02240629	          0.93969490	          1.25659986	         -0.60860851	          1.06402562	          1.32727806	         -0.48483934	          1.08928448	          1.26248629	         -0.50734851	
0.55	        -11.24239562	          0.33945834	         -0.83863046	          1.02027608	          1.03563754	         -0.34061642	         38.86789486	          2.82774234	         -1.99513989	        -14.66332128	        -13.18868751	         -2.44697727	          2.89146941	         -0.02518203	        -67.67009061	        -10.08854251	          4.46284524	          2.63649334	         -6.86669765	        -57.20259380	        -20.74200364	        -24.92110353	        111.76806683	        103.07090429	        -33.11322615	        -14.02897203	         -3.98306450	        136.61046101	        103.80199051	          0.00000000	          0.00000000	          0.00000000	          0.00000000	          0.00000000	          0.00000000	          0.00000000	          0.00000000	          1.03858745	          1.06729652	         -0.46691021	          1.02764973	          1.07878686	         -0.22269048	          0.88055426	          1.13305084	         -0.40542257	          0.87138516	          1.12636756	         -0.29117663	          0.97405757	          0.95821485	         -0.16594162	          0.98202253	          0.80327557	         -0.19089056	          1.08610555	          0.68133291	         -0.19886133	          0.96471951	          0.93857201	         -0.51977322	          0.84846045	          0.81419366	         -0.47804250	          0.85754314	          0.67005545	         -0.47421713	          1.22616185	          0.46809743	         -0.27108603	          1.15890812	          0.40106707	         -0.20849025	          1.24794151	          0.28140768	         -0.29117180	          0.74066353	          0.47996097	         -0.41226887	          0.61549303	          0.54096792	         -0.46254488	          0.52173975	          0.45743321	         -0.41564799	          1.16105387	          0.13798011	         -0.29712737	          1.39933050	          0.13961510	         -0.33655371	          1.36184176	          0.09544321	         -0.24430376	          0.38433756	          0.55694759	         -0.39152122	          0.36202301	          0.32031767	         -0.39276828	          0.32291995	          0.37173149	         -0.48470088	          0.99477910	          1.57318061	         -0.48070353	          0.98276873	          1.54735067	         -0.16277726	          1.04502746	          1.51406973	         -0.28652984	          0.93041939	          1.58528582	         -0.32685990	          0.84255374	          1.50814156	         -0.13019401	          0.85416565	          1.44712903	         -0.07708889	          0.75138943	          1.42259766	         -0.05601247	          0.69128667	          1.38162102	         -0.03667683	          0.70162393	          1.34061434	         -0.11692760	          0.90482111	          1.48192893	         -0.55138549	          0.93831868	          1.40806511	         -0.57760316	          0.86801933	          1.34832128	         -0.61789678	          0.85526026	          1.28056198	         -0.63993305	          0.82139292	          1.25699330	         -0.55556599	          0.75760871	          1.29945283	         -0.00961913	          0.90512948	          1.20528234	         -0.05741040	          0.86007160	          1.16819328	         -0.02046945	          0.92908389	          1.25391484	         -0.61178786	          1.05927657	          1.31348753	         -0.48765056	          1.07983958	          1.24799233	         -0.51222966	
0.56	        -11.19915429	          0.14148663	         -0.89794195	          1.01901083	          1.03038391	         -0.34078238	         38.10663921	          3.05073458	         -4.33858237	        -15.72405878	        -14.89947309	          0.12012036	          2.10114193	         -0.67450048	        -74.53464596	         -8.57718270	          4.30148046	          3.01199463	         -6.17941398	        -55.74482440	        -21.49439791	        -24.40517541	        112.04694206	        103.14561892	        -34.69032559	        -14.36770158	         -4.20886272	        134.26523925	        103.64265822	          0.00000000	          0.00000000	          0.00000000	          0.00000000	          0.00000000	          0.00000000	          0.00000000	          0.00000000	          1.03730086	          1.06181820	         -0.46791910	          1.02539901	          1.07342329	         -0.22259061	          0.87949155	          1.12769440	         -0.40613132	          0.87003038	          1.12112702	         -0.29195901	          0.96972001	          0.95218218	         -0.16527427	          0.97661265	          0.79689000	         -0.19283026	          1.07973431	          0.67494064	         -0.20153647	          0.96574963	          0.93406108	         -0.52014996	          0.85342548	          0.80614358	         -0.47611007	          0.86848221	          0.66255334	         -0.47729651	          1.21482436	          0.45705188	         -0.27106610	          1.14389905	          0.39085694	         -0.21191332	          1.23298300	          0.26981999	         -0.29325598	          0.75414765	          0.47676846	         -0.41822648	          0.63279724	          0.54730912	         -0.46560096	          0.53418231	          0.46966583	         -0.41938018	          1.14171859	          0.13171428	         -0.30588740	          1.38056581	          0.12131592	         -0.33760975	          1.33730796	          0.07483118	         -0.24936071	          0.40360267	          0.57752602	         -0.39004708	          0.36806834	          0.34281059	         -0.40126551	          0.33265505	          0.40025022	         -0.49116833	          0.99342617	          1.56846187	         -0.48027145	          0.98403966	          1.54098488	         -0.16236511	          1.04472078	          1.50879164	         -0.28681730	          0.92947929	          1.58040482	         -0.32601640	          0.84442916	          1.49985713	         -0.12632447	          0.85819608	          1.43855861	         -0.07389107	          0.75686660	          1.41133305	         -0.04980723	          0.69821813	          1.36908852	         -0.02937969	          0.70720317	          1.32868513	         -0.11010627	          0.90051492	          1.48046105	         -0.54989827	          0.93196386	          1.40660816	         -0.57842198	          0.85969592	          1.34964187	         -0.61837302	          0.84525589	          1.28214702	         -0.64099984	          0.81116693	          1.25857211	         -0.55719372	          0.76721943	          1.28869295	         -0.00464468	          0.91590991	          1.19862361	         -0.05663359	          0.87263864	          1.16056154	         -0.01852924	          0.91756994	          1.25001119	         -0.61512556	          1.05372109	          1.29723377	         -0.49144193	          1.06923234	          1.23146048	         -0.51839669	
0.57	        -11.23770109	          0.05722610	         -0.93662102	          1.01713201	          1.02420521	         -0.34102170	         37.46351050	          3.13314799	         -5.92779999	        -17.73653706	        -15.14407339	          3.00235986	          1.37543160	         -1.26805892	        -81.11078250	         -6.55475468	          4.19263846	          3.26545440	         -5.37858560	        -54.02951994	        -22.27348175	        -23.73376130	        112.08257553	        102.94474408	        -36.10244633	        -14.76451827	         -4.47451331	        131.55673516	        103.60952140	          0.00000000	          0.00000000	          0.00000000	          0.00000000	          0.00000000	          0.00000000	          0.00000000	          0.00000000	          1.03544914	          1.05562853	         -0.46857476	          1.02315561	          1.06713052	         -0.22260532	          0.87782913	          1.12183311	         -0.40640345	          0.86825354	          1.11488191	         -0.29231883	          0.96537777	          0.94572706	         -0.16466901	          0.97101324	          0.78972729	         -0.19646735	          1.07267336	          0.66795167	         -0.20405071	          0.96682253	          0.92904102	         -0.52064336	          0.85904144	          0.79747281	         -0.47486887	          0.88064223	          0.65426453	         -0.48112156	          1.20196039	          0.44414709	         -0.27123281	          1.12697822	          0.37998923	         -0.21490803	          1.21286997	          0.25628414	         -0.29557787	          0.77002434	          0.47280736	         -0.42477565	          0.65246959	          0.55207875	         -0.46867976	          0.55005760	          0.47944470	         -0.42297032	          1.11421955	          0.12471385	         -0.31260031	          1.35308090	          0.10127470	         -0.34001774	          1.30465137	          0.05753966	         -0.25314573	          0.42474321	          0.59409250	         -0.38835953	          0.38075789	          0.36145315	         -0.40867098	          0.34821996	          0.42361006	         -0.49653317	          0.99156420	          1.56283766	         -0.48000963	          0.98535387	          1.53356177	         -0.16176236	          1.04448480	          1.50276735	         -0.28706457	          0.92856850	          1.57469149	         -0.32512834	          0.84675909	          1.48987923	         -0.12166138	          0.86296177	          1.42828222	         -0.07047149	          0.76327772	          1.39825991	         -0.04311962	          0.70632859	          1.35479499	         -0.02146457	          0.71368758	          1.31514281	         -0.10261846	          0.89560693	          1.47770853	         -0.54822525	          0.92507531	          1.40397705	         -0.57917348	          0.85097872	          1.34974699	         -0.61854578	          0.83484764	          1.28267013	         -0.64169454	          0.80143737	          1.25890365	         -0.55868728	          0.77778452	          1.27596556	          0.00079904	          0.92753259	          1.19040313	         -0.05575078	          0.88613199	          1.15125380	         -0.01670864	          0.90526276	          1.24489336	         -0.61850620	          1.04697763	          1.27871700	         -0.49604675	          1.05724433	          1.21317887	         -0.52560502	
